<svg width="800" height="500" viewBox="0 0 800 500" fill="none" xmlns="http://www.w3.org/2000/svg">
  <defs>
    <linearGradient id="bg" x1="68" y1="56" x2="734" y2="448" gradientUnits="userSpaceOnUse">
      <stop stop-color="#071322"/>
      <stop offset="1" stop-color="#120B23"/>
    </linearGradient>
    <linearGradient id="accent" x1="120" y1="120" x2="658" y2="366" gradientUnits="userSpaceOnUse">
      <stop stop-color="#38BDF8"/>
      <stop offset="0.55" stop-color="#6366F1"/>
      <stop offset="1" stop-color="#A855F7"/>
    </linearGradient>
    <filter id="glow" x="-20%" y="-20%" width="140%" height="140%">
      <feGaussianBlur stdDeviation="34"/>
    </filter>
  </defs>
  <rect width="800" height="500" rx="28" fill="url(#bg)"/>
  <circle cx="654" cy="104" r="88" fill="#38BDF8" fill-opacity="0.2" filter="url(#glow)"/>
  <circle cx="156" cy="398" r="110" fill="#A855F7" fill-opacity="0.18" filter="url(#glow)"/>
  <rect x="92" y="78" width="616" height="344" rx="28" fill="#080E19" fill-opacity="0.78" stroke="#FFFFFF" stroke-opacity="0.10" stroke-width="2"/>
  <rect x="122" y="108" width="172" height="284" rx="22" fill="#FFFFFF" fill-opacity="0.04" stroke="#FFFFFF" stroke-opacity="0.08"/>
  <rect x="318" y="108" width="360" height="118" rx="22" fill="#FFFFFF" fill-opacity="0.04" stroke="#FFFFFF" stroke-opacity="0.08"/>
  <rect x="318" y="248" width="172" height="144" rx="22" fill="url(#accent)"/>
  <rect x="506" y="248" width="172" height="144" rx="22" fill="#FFFFFF" fill-opacity="0.04" stroke="#FFFFFF" stroke-opacity="0.08"/>
  <rect x="146" y="136" width="124" height="20" rx="10" fill="url(#accent)"/>
  <rect x="146" y="170" width="96" height="12" rx="6" fill="#FFFFFF" fill-opacity="0.12"/>
  <rect x="146" y="202" width="124" height="74" rx="18" fill="url(#accent)"/>
  <rect x="146" y="294" width="92" height="12" rx="6" fill="#FFFFFF" fill-opacity="0.12"/>
  <rect x="146" y="318" width="72" height="12" rx="6" fill="#FFFFFF" fill-opacity="0.08"/>
  <path d="M348 190C381 167 415 176 448 154C476 136 524 139 558 121C584 107 609 111 648 134" stroke="url(#accent)" stroke-width="8" stroke-linecap="round"/>
  <circle cx="448" cy="154" r="10" fill="#7DD3FC"/>
  <circle cx="558" cy="121" r="10" fill="#C084FC"/>
  <path d="M346 332L385 304L416 326L456 282" stroke="#F8FAFC" stroke-width="8" stroke-linecap="round" stroke-linejoin="round"/>
  <rect x="532" y="280" width="120" height="18" rx="9" fill="#FFFFFF" fill-opacity="0.14"/>
  <rect x="532" y="312" width="92" height="18" rx="9" fill="#FFFFFF" fill-opacity="0.10"/>
  <rect x="532" y="344" width="70" height="18" rx="9" fill="#FFFFFF" fill-opacity="0.08"/>
  <text x="120" y="58" fill="#E0F2FE" font-size="26" font-family="Outfit, Arial, sans-serif" font-weight="700">Aura Platform</text>
  <text x="120" y="456" fill="#93C5FD" font-size="18" font-family="Outfit, Arial, sans-serif" letter-spacing="2">FINANCIAL ANALYTICS DASHBOARD</text>
</svg>
