<svg width="800" height="500" viewBox="0 0 800 500" fill="none" xmlns="http://www.w3.org/2000/svg">
  <defs>
    <linearGradient id="bg" x1="72" y1="64" x2="740" y2="456" gradientUnits="userSpaceOnUse">
      <stop stop-color="#1D0F0A"/>
      <stop offset="1" stop-color="#3D1F1B"/>
    </linearGradient>
    <linearGradient id="coffee" x1="132" y1="110" x2="294" y2="298" gradientUnits="userSpaceOnUse">
      <stop stop-color="#F3C792"/>
      <stop offset="1" stop-color="#A85D34"/>
    </linearGradient>
    <linearGradient id="accent" x1="408" y1="154" x2="666" y2="384" gradientUnits="userSpaceOnUse">
      <stop stop-color="#FED7AA"/>
      <stop offset="1" stop-color="#FB923C"/>
    </linearGradient>
    <filter id="glow" x="-20%" y="-20%" width="140%" height="140%">
      <feGaussianBlur stdDeviation="38"/>
    </filter>
  </defs>
  <rect width="800" height="500" rx="28" fill="url(#bg)"/>
  <circle cx="633" cy="107" r="85" fill="#FB923C" fill-opacity="0.24" filter="url(#glow)"/>
  <circle cx="145" cy="396" r="98" fill="#F59E0B" fill-opacity="0.14" filter="url(#glow)"/>
  <rect x="88" y="78" width="624" height="344" rx="30" fill="rgba(14,10,8,0.72)" stroke="rgba(255,255,255,0.10)" stroke-width="2"/>
  <rect x="118" y="108" width="226" height="284" rx="24" fill="rgba(255,248,240,0.06)" stroke="rgba(255,255,255,0.10)"/>
  <rect x="374" y="108" width="308" height="132" rx="24" fill="rgba(255,248,240,0.05)" stroke="rgba(255,255,255,0.08)"/>
  <rect x="374" y="260" width="308" height="132" rx="24" fill="rgba(255,248,240,0.05)" stroke="rgba(255,255,255,0.08)"/>
  <circle cx="231" cy="194" r="56" fill="url(#coffee)"/>
  <path d="M209 194C209 180 220 169 234 169C248 169 259 180 259 194V202C259 220 244 234 226 234H222C214 234 208 228 208 220V194H209Z" fill="#2A150E"/>
  <path d="M259 188H273C284 188 293 197 293 208C293 219 284 228 273 228H260" stroke="#2A150E" stroke-width="10" stroke-linecap="round"/>
  <path d="M221 144C221 144 207 125 219 109" stroke="#FDE68A" stroke-width="7" stroke-linecap="round"/>
  <path d="M243 142C243 142 232 124 245 108" stroke="#FCD34D" stroke-width="7" stroke-linecap="round"/>
  <text x="165" y="288" fill="#F8E7D6" font-size="34" font-family="Georgia, serif" font-weight="700" letter-spacing="2">MOCA</text>
  <text x="164" y="315" fill="#F6CDA9" font-size="14" font-family="Outfit, Arial, sans-serif" letter-spacing="4">ROASTERS</text>
  <rect x="404" y="142" width="132" height="20" rx="10" fill="url(#accent)"/>
  <rect x="404" y="178" width="198" height="12" rx="6" fill="rgba(255,255,255,0.10)"/>
  <rect x="404" y="201" width="162" height="12" rx="6" fill="rgba(255,255,255,0.10)"/>
  <circle cx="626" cy="176" r="28" fill="url(#accent)"/>
  <rect x="405" y="292" width="116" height="72" rx="18" fill="url(#accent)"/>
  <rect x="539" y="292" width="116" height="72" rx="18" fill="rgba(255,255,255,0.08)"/>
  <rect x="553" y="306" width="87" height="10" rx="5" fill="rgba(255,255,255,0.14)"/>
  <rect x="553" y="326" width="72" height="10" rx="5" fill="rgba(255,255,255,0.12)"/>
  <text x="116" y="62" fill="#FFF7ED" font-size="26" font-family="Outfit, Arial, sans-serif" font-weight="700">Cafe Moca Rebrand</text>
  <text x="116" y="455" fill="#FDBA74" font-size="18" font-family="Outfit, Arial, sans-serif" letter-spacing="2">IDENTITY • PACKAGING • TYPOGRAPHY</text>
</svg>
