<svg width="800" height="500" viewBox="0 0 800 500" fill="none" xmlns="http://www.w3.org/2000/svg">
  <defs>
    <linearGradient id="bg" x1="62" y1="54" x2="740" y2="448" gradientUnits="userSpaceOnUse">
      <stop stop-color="#110A21"/>
      <stop offset="1" stop-color="#090F1D"/>
    </linearGradient>
    <linearGradient id="poster" x1="160" y1="106" x2="618" y2="380" gradientUnits="userSpaceOnUse">
      <stop stop-color="#F472B6"/>
      <stop offset="0.5" stop-color="#8B5CF6"/>
      <stop offset="1" stop-color="#22D3EE"/>
    </linearGradient>
    <filter id="glow" x="-20%" y="-20%" width="140%" height="140%">
      <feGaussianBlur stdDeviation="38"/>
    </filter>
  </defs>
  <rect width="800" height="500" rx="28" fill="url(#bg)"/>
  <circle cx="634" cy="114" r="88" fill="#8B5CF6" fill-opacity="0.22" filter="url(#glow)"/>
  <circle cx="150" cy="388" r="104" fill="#22D3EE" fill-opacity="0.14" filter="url(#glow)"/>
  <rect x="92" y="80" width="616" height="340" rx="28" fill="#090E1C" fill-opacity="0.78" stroke="#FFFFFF" stroke-opacity="0.10" stroke-width="2"/>
  <rect x="138" y="118" width="146" height="244" rx="18" fill="url(#poster)" transform="rotate(-8 138 118)"/>
  <rect x="326" y="110" width="146" height="250" rx="18" fill="#FFFFFF" fill-opacity="0.08"/>
  <rect x="510" y="124" width="146" height="240" rx="18" fill="url(#poster)" transform="rotate(6 510 124)"/>
  <text x="170" y="196" fill="#F8FAFC" font-size="30" font-family="Outfit, Arial, sans-serif" font-weight="800" transform="rotate(-8 170 196)">DEV</text>
  <text x="170" y="232" fill="#F8FAFC" font-size="30" font-family="Outfit, Arial, sans-serif" font-weight="800" transform="rotate(-8 170 232)">CON</text>
  <text x="352" y="180" fill="#F8FAFC" font-size="24" font-family="Outfit, Arial, sans-serif" font-weight="800">2026</text>
  <rect x="352" y="206" width="94" height="14" rx="7" fill="url(#poster)"/>
  <rect x="352" y="236" width="70" height="12" rx="6" fill="#FFFFFF" fill-opacity="0.14"/>
  <path d="M352 288H446" stroke="url(#poster)" stroke-width="10" stroke-linecap="round"/>
  <path d="M352 316H420" stroke="#FFFFFF" stroke-opacity="0.14" stroke-width="8" stroke-linecap="round"/>
  <text x="552" y="210" fill="#F8FAFC" font-size="28" font-family="Outfit, Arial, sans-serif" font-weight="800" transform="rotate(6 552 210)">CODE</text>
  <text x="548" y="246" fill="#F8FAFC" font-size="20" font-family="Outfit, Arial, sans-serif" font-weight="700" transform="rotate(6 548 246)">FUTURE</text>
  <text x="120" y="60" fill="#F5F3FF" font-size="26" font-family="Outfit, Arial, sans-serif" font-weight="700">DevCon 2026 Poster Set</text>
  <text x="120" y="455" fill="#C4B5FD" font-size="18" font-family="Outfit, Arial, sans-serif" letter-spacing="2">BOLD TYPOGRAPHY FOR A GLOBAL TECH EVENT</text>
</svg>
