<svg width="800" height="500" viewBox="0 0 800 500" fill="none" xmlns="http://www.w3.org/2000/svg">
  <defs>
    <linearGradient id="bg" x1="80" y1="52" x2="728" y2="452" gradientUnits="userSpaceOnUse">
      <stop stop-color="#081829"/>
      <stop offset="1" stop-color="#130A24"/>
    </linearGradient>
    <linearGradient id="signal" x1="126" y1="134" x2="655" y2="349" gradientUnits="userSpaceOnUse">
      <stop stop-color="#38BDF8"/>
      <stop offset="0.5" stop-color="#6366F1"/>
      <stop offset="1" stop-color="#EC4899"/>
    </linearGradient>
    <filter id="glow" x="-20%" y="-20%" width="140%" height="140%">
      <feGaussianBlur stdDeviation="34"/>
    </filter>
  </defs>
  <rect width="800" height="500" rx="28" fill="url(#bg)"/>
  <circle cx="148" cy="120" r="90" fill="#0EA5E9" fill-opacity="0.20" filter="url(#glow)"/>
  <circle cx="640" cy="376" r="114" fill="#DB2777" fill-opacity="0.16" filter="url(#glow)"/>
  <rect x="92" y="80" width="616" height="340" rx="28" fill="rgba(6,12,24,0.74)" stroke="rgba(255,255,255,0.10)" stroke-width="2"/>
  <rect x="122" y="110" width="350" height="280" rx="22" fill="rgba(255,255,255,0.04)" stroke="rgba(255,255,255,0.08)"/>
  <rect x="500" y="110" width="178" height="280" rx="22" fill="rgba(255,255,255,0.04)" stroke="rgba(255,255,255,0.08)"/>
  <rect x="152" y="144" width="184" height="20" rx="10" fill="url(#signal)"/>
  <rect x="152" y="178" width="258" height="14" rx="7" fill="rgba(255,255,255,0.12)"/>
  <rect x="152" y="204" width="220" height="14" rx="7" fill="rgba(255,255,255,0.10)"/>
  <rect x="152" y="246" width="124" height="42" rx="21" fill="url(#signal)"/>
  <rect x="292" y="246" width="96" height="42" rx="21" fill="rgba(255,255,255,0.08)"/>
  <path d="M156 336C189 298 220 314 254 278C282 248 314 255 344 222C372 191 410 194 440 163" stroke="url(#signal)" stroke-width="8" stroke-linecap="round"/>
  <circle cx="254" cy="278" r="11" fill="#38BDF8"/>
  <circle cx="344" cy="222" r="11" fill="#818CF8"/>
  <circle cx="440" cy="163" r="11" fill="#F472B6"/>
  <rect x="526" y="146" width="126" height="96" rx="22" fill="url(#signal)"/>
  <path d="M563 203L583 182L598 195L621 168" stroke="#F8FAFC" stroke-width="8" stroke-linecap="round" stroke-linejoin="round"/>
  <rect x="526" y="270" width="126" height="18" rx="9" fill="rgba(255,255,255,0.12)"/>
  <rect x="526" y="302" width="98" height="18" rx="9" fill="rgba(255,255,255,0.10)"/>
  <rect x="526" y="334" width="76" height="18" rx="9" fill="rgba(255,255,255,0.08)"/>
  <text x="120" y="60" fill="#E0F2FE" font-size="26" font-family="Outfit, Arial, sans-serif" font-weight="700">Fintech Conversion Page</text>
  <text x="120" y="455" fill="#7DD3FC" font-size="18" font-family="Outfit, Arial, sans-serif" letter-spacing="2">RESPONSIVE • HIGH-CONVERTING • WEB3</text>
</svg>
