<svg width="800" height="500" viewBox="0 0 800 500" fill="none" xmlns="http://www.w3.org/2000/svg">
  <defs>
    <linearGradient id="bg" x1="96" y1="58" x2="700" y2="446" gradientUnits="userSpaceOnUse">
      <stop stop-color="#091A35"/>
      <stop offset="1" stop-color="#140A25"/>
    </linearGradient>
    <linearGradient id="panel" x1="112" y1="98" x2="652" y2="402" gradientUnits="userSpaceOnUse">
      <stop stop-color="rgba(255,255,255,0.18)"/>
      <stop offset="1" stop-color="rgba(255,255,255,0.06)"/>
    </linearGradient>
    <linearGradient id="blueGlow" x1="0" y1="0" x2="1" y2="1">
      <stop stop-color="#4DA3FF"/>
      <stop offset="1" stop-color="#7C5CFF"/>
    </linearGradient>
    <filter id="blur" x="-20%" y="-20%" width="140%" height="140%">
      <feGaussianBlur stdDeviation="36"/>
    </filter>
  </defs>
  <rect width="800" height="500" rx="28" fill="url(#bg)"/>
  <circle cx="678" cy="120" r="86" fill="#3B82F6" fill-opacity="0.28" filter="url(#blur)"/>
  <circle cx="156" cy="406" r="104" fill="#EC4899" fill-opacity="0.20" filter="url(#blur)"/>
  <rect x="92" y="76" width="616" height="348" rx="26" fill="#09111F" stroke="rgba(255,255,255,0.10)" stroke-width="2"/>
  <rect x="120" y="106" width="560" height="56" rx="18" fill="rgba(255,255,255,0.05)"/>
  <rect x="148" y="126" width="170" height="16" rx="8" fill="url(#blueGlow)"/>
  <rect x="514" y="124" width="58" height="20" rx="10" fill="rgba(255,255,255,0.08)"/>
  <rect x="586" y="124" width="66" height="20" rx="10" fill="rgba(255,255,255,0.08)"/>
  <rect x="120" y="188" width="252" height="202" rx="22" fill="rgba(255,255,255,0.04)" stroke="rgba(255,255,255,0.08)"/>
  <rect x="398" y="188" width="282" height="202" rx="22" fill="rgba(255,255,255,0.04)" stroke="rgba(255,255,255,0.08)"/>
  <rect x="144" y="214" width="204" height="108" rx="18" fill="url(#blueGlow)"/>
  <circle cx="198" cy="268" r="34" fill="rgba(255,255,255,0.18)"/>
  <path d="M182 270H214L223 291H191L182 270Z" fill="#F8FAFC"/>
  <path d="M194 244H227L233 262H200L194 244Z" fill="#DBEAFE"/>
  <circle cx="197" cy="297" r="10" fill="#0F172A"/>
  <circle cx="220" cy="297" r="10" fill="#0F172A"/>
  <rect x="144" y="338" width="128" height="12" rx="6" fill="rgba(255,255,255,0.16)"/>
  <rect x="144" y="358" width="92" height="10" rx="5" fill="rgba(255,255,255,0.10)"/>
  <rect x="422" y="216" width="234" height="22" rx="11" fill="rgba(255,255,255,0.12)"/>
  <rect x="422" y="256" width="236" height="18" rx="9" fill="rgba(255,255,255,0.08)"/>
  <rect x="422" y="292" width="182" height="18" rx="9" fill="rgba(255,255,255,0.08)"/>
  <rect x="422" y="334" width="102" height="34" rx="17" fill="url(#blueGlow)"/>
  <text x="142" y="64" fill="#E2E8F0" font-size="26" font-family="Outfit, Arial, sans-serif" font-weight="700">Nexus E-Commerce</text>
  <text x="143" y="455" fill="#7DD3FC" font-size="18" font-family="Outfit, Arial, sans-serif" letter-spacing="2">MODERN STOREFRONT UI</text>
</svg>
