<svg width="800" height="500" viewBox="0 0 800 500" fill="none" xmlns="http://www.w3.org/2000/svg">
  <defs>
    <linearGradient id="bg" x1="74" y1="54" x2="724" y2="446" gradientUnits="userSpaceOnUse">
      <stop stop-color="#091629"/>
      <stop offset="1" stop-color="#1A0D28"/>
    </linearGradient>
    <linearGradient id="accent" x1="140" y1="130" x2="652" y2="364" gradientUnits="userSpaceOnUse">
      <stop stop-color="#3B82F6"/>
      <stop offset="0.5" stop-color="#8B5CF6"/>
      <stop offset="1" stop-color="#EC4899"/>
    </linearGradient>
    <filter id="glow" x="-20%" y="-20%" width="140%" height="140%">
      <feGaussianBlur stdDeviation="34"/>
    </filter>
  </defs>
  <rect width="800" height="500" rx="28" fill="url(#bg)"/>
  <circle cx="146" cy="116" r="88" fill="#3B82F6" fill-opacity="0.2" filter="url(#glow)"/>
  <circle cx="648" cy="390" r="112" fill="#EC4899" fill-opacity="0.16" filter="url(#glow)"/>
  <rect x="94" y="82" width="612" height="336" rx="28" fill="rgba(9,15,28,0.76)" stroke="rgba(255,255,255,0.10)" stroke-width="2"/>
  <rect x="124" y="112" width="264" height="276" rx="22" fill="rgba(255,255,255,0.04)" stroke="rgba(255,255,255,0.08)"/>
  <rect x="412" y="112" width="264" height="276" rx="22" fill="rgba(255,255,255,0.04)" stroke="rgba(255,255,255,0.08)"/>
  <rect x="148" y="136" width="216" height="128" rx="18" fill="url(#accent)"/>
  <circle cx="206" cy="198" r="30" fill="rgba(255,255,255,0.18)"/>
  <path d="M190 199H217L224 216H197L190 199Z" fill="#F8FAFC"/>
  <path d="M200 177H228L233 191H206L200 177Z" fill="#DBEAFE"/>
  <circle cx="202" cy="221" r="9" fill="#111827"/>
  <circle cx="222" cy="221" r="9" fill="#111827"/>
  <rect x="148" y="286" width="128" height="12" rx="6" fill="rgba(255,255,255,0.14)"/>
  <rect x="148" y="308" width="94" height="10" rx="5" fill="rgba(255,255,255,0.10)"/>
  <rect x="440" y="144" width="160" height="18" rx="9" fill="rgba(255,255,255,0.14)"/>
  <rect x="440" y="176" width="196" height="12" rx="6" fill="rgba(255,255,255,0.10)"/>
  <rect x="440" y="204" width="168" height="12" rx="6" fill="rgba(255,255,255,0.10)"/>
  <rect x="440" y="246" width="136" height="42" rx="21" fill="url(#accent)"/>
  <rect x="440" y="310" width="178" height="48" rx="18" fill="rgba(255,255,255,0.08)"/>
  <text x="120" y="60" fill="#F5F3FF" font-size="26" font-family="Outfit, Arial, sans-serif" font-weight="700">Nova E-Commerce</text>
  <text x="120" y="456" fill="#93C5FD" font-size="18" font-family="Outfit, Arial, sans-serif" letter-spacing="2">ANIMATED ONLINE STOREFRONT</text>
</svg>
