<svg width="800" height="500" viewBox="0 0 800 500" fill="none" xmlns="http://www.w3.org/2000/svg">
  <defs>
    <linearGradient id="bg" x1="72" y1="50" x2="732" y2="450" gradientUnits="userSpaceOnUse">
      <stop stop-color="#0B1220"/>
      <stop offset="1" stop-color="#1F1033"/>
    </linearGradient>
    <linearGradient id="feed" x1="118" y1="116" x2="681" y2="361" gradientUnits="userSpaceOnUse">
      <stop stop-color="#22C55E"/>
      <stop offset="0.5" stop-color="#06B6D4"/>
      <stop offset="1" stop-color="#8B5CF6"/>
    </linearGradient>
    <filter id="glow" x="-20%" y="-20%" width="140%" height="140%">
      <feGaussianBlur stdDeviation="36"/>
    </filter>
  </defs>
  <rect width="800" height="500" rx="28" fill="url(#bg)"/>
  <circle cx="145" cy="112" r="84" fill="#22C55E" fill-opacity="0.16" filter="url(#glow)"/>
  <circle cx="650" cy="384" r="112" fill="#8B5CF6" fill-opacity="0.20" filter="url(#glow)"/>
  <rect x="94" y="82" width="612" height="336" rx="28" fill="#0A111C" fill-opacity="0.76" stroke="#FFFFFF" stroke-opacity="0.10" stroke-width="2"/>
  <rect x="124" y="112" width="156" height="256" rx="22" fill="#FFFFFF" fill-opacity="0.04" stroke="#FFFFFF" stroke-opacity="0.08"/>
  <rect x="302" y="136" width="188" height="208" rx="26" fill="url(#feed)"/>
  <rect x="512" y="124" width="164" height="232" rx="22" fill="#FFFFFF" fill-opacity="0.04" stroke="#FFFFFF" stroke-opacity="0.08"/>
  <circle cx="202" cy="160" r="22" fill="url(#feed)"/>
  <rect x="154" y="200" width="96" height="12" rx="6" fill="#FFFFFF" fill-opacity="0.14"/>
  <rect x="154" y="222" width="72" height="12" rx="6" fill="#FFFFFF" fill-opacity="0.10"/>
  <rect x="146" y="260" width="112" height="74" rx="18" fill="#FFFFFF" fill-opacity="0.08"/>
  <path d="M350 258C381 222 415 212 448 190" stroke="#F8FAFC" stroke-width="8" stroke-linecap="round"/>
  <circle cx="382" cy="224" r="12" fill="#E0F2FE"/>
  <circle cx="448" cy="190" r="12" fill="#E0F2FE"/>
  <rect x="340" y="286" width="112" height="18" rx="9" fill="#FFFFFF" fill-opacity="0.16"/>
  <rect x="538" y="154" width="112" height="54" rx="16" fill="url(#feed)"/>
  <rect x="538" y="230" width="112" height="16" rx="8" fill="#FFFFFF" fill-opacity="0.12"/>
  <rect x="538" y="258" width="90" height="16" rx="8" fill="#FFFFFF" fill-opacity="0.10"/>
  <rect x="538" y="286" width="74" height="16" rx="8" fill="#FFFFFF" fill-opacity="0.10"/>
  <text x="120" y="60" fill="#E9FDF4" font-size="26" font-family="Outfit, Arial, sans-serif" font-weight="700">Social Media Toolkit</text>
  <text x="120" y="455" fill="#86EFAC" font-size="18" font-family="Outfit, Arial, sans-serif" letter-spacing="2">CAMPAIGNS FOR X • INSTAGRAM • LINKEDIN</text>
</svg>
