<svg width="800" height="500" viewBox="0 0 800 500" fill="none" xmlns="http://www.w3.org/2000/svg">
  <defs>
    <linearGradient id="bg" x1="72" y1="54" x2="732" y2="448" gradientUnits="userSpaceOnUse">
      <stop stop-color="#120B21"/>
      <stop offset="1" stop-color="#08111E"/>
    </linearGradient>
    <linearGradient id="accent" x1="126" y1="118" x2="654" y2="370" gradientUnits="userSpaceOnUse">
      <stop stop-color="#F472B6"/>
      <stop offset="0.55" stop-color="#8B5CF6"/>
      <stop offset="1" stop-color="#22D3EE"/>
    </linearGradient>
    <filter id="glow" x="-20%" y="-20%" width="140%" height="140%">
      <feGaussianBlur stdDeviation="36"/>
    </filter>
  </defs>
  <rect width="800" height="500" rx="28" fill="url(#bg)"/>
  <circle cx="642" cy="114" r="88" fill="#8B5CF6" fill-opacity="0.22" filter="url(#glow)"/>
  <circle cx="152" cy="392" r="106" fill="#22D3EE" fill-opacity="0.14" filter="url(#glow)"/>
  <rect x="92" y="80" width="616" height="340" rx="28" fill="#0A0E1B" fill-opacity="0.78" stroke="#FFFFFF" stroke-opacity="0.10" stroke-width="2"/>
  <rect x="120" y="110" width="220" height="280" rx="24" fill="#FFFFFF" fill-opacity="0.04" stroke="#FFFFFF" stroke-opacity="0.08"/>
  <rect x="364" y="110" width="316" height="124" rx="24" fill="#FFFFFF" fill-opacity="0.04" stroke="#FFFFFF" stroke-opacity="0.08"/>
  <rect x="364" y="254" width="316" height="136" rx="24" fill="#FFFFFF" fill-opacity="0.04" stroke="#FFFFFF" stroke-opacity="0.08"/>
  <circle cx="230" cy="192" r="58" fill="url(#accent)"/>
  <path d="M208 216L230 162L252 216H236L230 202L224 216H208Z" fill="#F8FAFC"/>
  <text x="177" y="290" fill="#F8FAFC" font-size="30" font-family="Outfit, Arial, sans-serif" font-weight="700" letter-spacing="2">ZENITH</text>
  <rect x="392" y="144" width="148" height="20" rx="10" fill="url(#accent)"/>
  <rect x="392" y="176" width="212" height="12" rx="6" fill="#FFFFFF" fill-opacity="0.12"/>
  <rect x="392" y="198" width="170" height="12" rx="6" fill="#FFFFFF" fill-opacity="0.10"/>
  <rect x="392" y="284" width="118" height="74" rx="18" fill="url(#accent)"/>
  <rect x="532" y="284" width="118" height="18" rx="9" fill="#FFFFFF" fill-opacity="0.14"/>
  <rect x="532" y="314" width="92" height="18" rx="9" fill="#FFFFFF" fill-opacity="0.10"/>
  <rect x="532" y="344" width="70" height="18" rx="9" fill="#FFFFFF" fill-opacity="0.08"/>
  <text x="120" y="60" fill="#F5F3FF" font-size="26" font-family="Outfit, Arial, sans-serif" font-weight="700">Zenith Branding</text>
  <text x="120" y="456" fill="#C4B5FD" font-size="18" font-family="Outfit, Arial, sans-serif" letter-spacing="2">AI BRAND SYSTEM &amp; VISUAL IDENTITY</text>
</svg>
